<?xml version="1.0" encoding="UTF-8"?>
<svg width="211px" height="28px" viewBox="0 0 211 28" version="1.1" xmlns="http://www.w3.org/2000/svg" xmlns:xlink="http://www.w3.org/1999/xlink">
    <!-- Generator: Sketch 64 (93537) - https://sketch.com -->
    <title>scalefluidly_logo</title>
    <desc>Created with Sketch.</desc>
    <g id="Page-1" stroke="none" stroke-width="1" fill="none" fill-rule="evenodd">
        <g id="scalefluidly_logo">
            <g id="Version-1">
                <path d="M182.180488,6.85059986 L182.180488,18.5268293 C183.227793,18.5268293 185.85054,18.5268293 190.048728,18.5268293 C196.346011,18.5268293 191.032563,12.7099912 197.848517,12.7099912 C202.392486,12.7099912 206.776314,12.7099912 211,12.7099912 L211,1.02926829 C210.674356,1.02926829 208.236868,1.02926829 203.687538,1.02926829 C196.863542,1.02926829 200.753734,6.85059986 195.857544,6.85059986 C192.593418,6.85059986 188.034399,6.85059986 182.180488,6.85059986 Z" id="Path-6" fill="#FDB338"></path>
                <path d="M9.15396678,22.7624037 C10.6192191,22.7624037 11.9088418,22.5897304 13.022835,22.2443838 C14.1368281,21.8990372 15.0701738,21.4165677 15.8228719,20.7969753 C16.57557,20.1773829 17.1426025,19.440982 17.5239696,18.5877728 C17.9053366,17.7345635 18.0960201,16.8102535 18.0960201,15.8148427 C18.0960201,14.5959724 17.8401027,13.595483 17.328268,12.8133745 C16.8164333,12.031266 16.2092569,11.406595 15.5067387,10.9393614 C14.8042205,10.4721277 14.0966842,10.1318598 13.3841301,9.91855745 C12.6715759,9.70525513 12.1145793,9.55797497 11.7131403,9.47671694 C10.3683197,9.13137035 9.27941646,8.84696727 8.44643058,8.6235077 C7.61344469,8.40004814 6.96110634,8.17658858 6.48941554,7.95312901 C6.01772474,7.72966945 5.70159154,7.48589538 5.54101595,7.2218068 C5.38044035,6.95771823 5.30015256,6.61237163 5.30015256,6.18576701 C5.30015256,5.71853338 5.4005123,5.33255777 5.60123179,5.02784018 C5.80195128,4.72312259 6.05786863,4.46919127 6.36898385,4.26604621 C6.68009906,4.06290116 7.02634018,3.92069961 7.40770721,3.83944159 C7.78907424,3.75818357 8.17044128,3.71755456 8.55180831,3.71755456 C9.13389483,3.71755456 9.67081947,3.76834082 10.1625822,3.86991335 C10.654345,3.97148588 11.0909099,4.14415918 11.4722769,4.38793325 C11.8536439,4.63170732 12.1597412,4.96689666 12.3905686,5.39350128 C12.621396,5.82010591 12.7568816,6.35844031 12.7970255,7.00850449 L17.3734299,7.00850449 C17.3734299,5.74900513 17.1375845,4.67741496 16.6658937,3.79373395 C16.1942029,2.91005295 15.5569185,2.18380937 14.7540406,1.61500321 C13.9511626,1.04619705 13.0328709,0.634828306 11.9991656,0.380896983 C10.9654602,0.126965661 9.88659292,0 8.76256377,0 C7.79911022,0 6.83565666,0.132044288 5.87220311,0.396132863 C4.90874955,0.660221438 4.04565574,1.06651155 3.28292167,1.61500321 C2.52018761,2.16349487 1.90297517,2.84910944 1.43128437,3.67184692 C0.959593566,4.4945844 0.723748164,5.46460205 0.723748164,6.58189987 C0.723748164,7.57731065 0.909413693,8.42544127 1.28074475,9.12629172 C1.65207581,9.82714217 2.13882058,10.4111842 2.74097905,10.8784178 C3.34313752,11.3456515 4.02558379,11.7265485 4.78831785,12.0211088 C5.55105192,12.3156691 6.33385793,12.5645218 7.1367359,12.7676669 C7.91954191,12.9911264 8.69231195,13.1942715 9.45504602,13.3771021 C10.2177801,13.5599326 10.9002264,13.7732349 11.5023848,14.017009 C12.1045433,14.2607831 12.5912881,14.5655006 12.9626191,14.9311617 C13.3339502,15.2968228 13.5196157,15.7742137 13.5196157,16.3633344 C13.5196157,16.9118261 13.3791121,17.3638238 13.0981048,17.7193277 C12.8170975,18.0748315 12.4658384,18.354156 12.0443275,18.557301 C11.6228165,18.7604461 11.1711977,18.897569 10.6894709,18.9686698 C10.2077441,19.0397705 9.75612525,19.0753209 9.33461432,19.0753209 C8.7123839,19.0753209 8.11022543,18.9991415 7.52813891,18.8467827 C6.94605238,18.6944239 6.43923567,18.4608071 6.00768876,18.1459323 C5.57614186,17.8310574 5.22990073,17.4196887 4.9689654,16.9118261 C4.70803006,16.4039634 4.57756239,15.784371 4.57756239,15.0530488 L0.00115799706,15.0530488 C-0.018913952,16.3938062 0.221949437,17.551733 0.723748164,18.5268293 C1.22554689,19.5019255 1.90297517,20.3043485 2.75603301,20.9340982 C3.60909085,21.5638479 4.59261635,22.0260029 5.70660953,22.3205632 C6.8206027,22.6151236 7.96972179,22.7624037 9.15396678,22.7624037 Z M28.0299622,22.6709884 C30.097373,22.6709884 31.7934527,22.1224968 33.1182013,21.0255135 C34.44295,19.9285302 35.2458279,18.3338415 35.5268352,16.2414474 L31.4020497,16.2414474 C31.261546,17.2165436 30.9153049,17.9935735 30.3633263,18.5725369 C29.8113477,19.1515003 29.0235237,19.440982 27.9998543,19.440982 C27.33748,19.440982 26.7754654,19.2886232 26.3138106,18.9839056 C25.8521558,18.6791881 25.4858427,18.2881338 25.2148714,17.8107429 C24.9439001,17.3333521 24.7481986,16.8000963 24.6277669,16.2109756 C24.5073352,15.6218549 24.4471193,15.0428915 24.4471193,14.4740854 C24.4471193,13.8849647 24.5073352,13.2907654 24.6277669,12.6914875 C24.7481986,12.0922096 24.953936,11.5437179 25.2449793,11.0460125 C25.5360226,10.5483071 25.9123716,10.142017 26.3740264,9.82714217 C26.8356813,9.51226733 27.4077318,9.35482991 28.0901781,9.35482991 C29.9167255,9.35482991 30.9705028,10.2588254 31.2515101,12.0668164 L35.4365115,12.0668164 C35.3762956,11.0510911 35.1354322,10.1724888 34.7139213,9.43100931 C34.2924104,8.68952985 33.7454497,8.06993742 33.0730394,7.57223203 C32.4006292,7.07452664 31.6378951,6.70378691 30.7848372,6.46001284 C29.9317794,6.21623877 29.0435957,6.09435173 28.120286,6.09435173 C26.8557532,6.09435173 25.7317241,6.30765404 24.7481986,6.73425866 C23.7646731,7.16086329 22.9316872,7.75506258 22.2492409,8.51685655 C21.5667946,9.27865051 21.0499419,10.182646 20.6986828,11.2288431 C20.3474237,12.2750401 20.1717942,13.4075738 20.1717942,14.6264442 C20.1717942,15.8046855 20.3624777,16.8864329 20.7438447,17.8716865 C21.1252118,18.85694 21.6571184,19.7050706 22.3395647,20.4160783 C23.0220109,21.127086 23.8499788,21.6806563 24.8234684,22.0767892 C25.7969579,22.472922 26.8657892,22.6709884 28.0299622,22.6709884 Z M42.7811722,22.6709884 C43.7446257,22.6709884 44.6880073,22.5287869 45.611317,22.2443838 C46.5346266,21.9599807 47.3375046,21.4622754 48.0199509,20.7512677 C48.0400228,21.0153562 48.0751487,21.2743662 48.1253286,21.5282975 C48.1755085,21.7822288 48.2407423,22.0310815 48.3210301,22.2748556 L48.3210301,22.2748556 L52.6565711,22.2748556 C52.4558516,21.9498235 52.315348,21.4622754 52.2350602,20.8122112 C52.1547724,20.162147 52.1146285,19.481611 52.1146285,18.7706033 L52.1146285,18.7706033 L52.1146285,10.5737003 C52.1146285,9.61891849 51.903873,8.85204589 51.4823621,8.27308248 C51.0608512,7.69411906 50.5189085,7.24212131 49.8565342,6.91708922 C49.1941599,6.59205712 48.4615337,6.37367619 47.6586558,6.26194641 C46.8557778,6.15021662 46.0629358,6.09435173 45.2801298,6.09435173 C44.417036,6.09435173 43.5589602,6.18068838 42.7059023,6.35336168 C41.8528445,6.52603498 41.0850925,6.81551669 40.4026462,7.2218068 C39.7201999,7.62809692 39.1581853,8.16643132 38.7166025,8.83681001 C38.2750196,9.5071887 38.0241202,10.3502407 37.9639044,11.365966 L37.9639044,11.365966 L42.2392295,11.365966 C42.3195173,10.5127567 42.6005246,9.90332157 43.0822514,9.53766046 C43.5639782,9.17199936 44.2263525,8.98916881 45.0693744,8.98916881 C45.4507414,8.98916881 45.8070185,9.01456194 46.1382056,9.0653482 C46.4693928,9.11613447 46.7604361,9.217707 47.0113354,9.37006579 C47.2622348,9.52242458 47.4629543,9.73572689 47.6134939,10.0099727 C47.7640335,10.2842185 47.8393033,10.6549583 47.8393033,11.1221919 C47.8593753,11.569111 47.7289076,11.909379 47.4479003,12.1429958 C47.166893,12.3766126 46.785526,12.5543646 46.3037992,12.6762516 C45.8220724,12.7981386 45.2700938,12.8895539 44.6478634,12.9504974 C44.025633,13.0114409 43.3933666,13.092699 42.7510642,13.1942715 C42.1087619,13.295844 41.4714775,13.4329669 40.8392111,13.6056402 C40.2069447,13.7783135 39.6449301,14.0373235 39.1531674,14.3826701 C38.6614046,14.7280167 38.2599656,15.1901717 37.9488504,15.7691351 C37.6377352,16.3480985 37.4821776,17.0844994 37.4821776,17.9783376 C37.4821776,18.7909178 37.6176633,19.4917683 37.8886346,20.080889 C38.1596059,20.6700096 38.5359549,21.1575578 39.0176817,21.5435334 C39.4994085,21.929509 40.0614231,22.2139121 40.7037254,22.3967426 C41.3460278,22.5795732 42.03851,22.6709884 42.7811722,22.6709884 Z M44.3768921,19.8066431 C44.035669,19.8066431 43.7044818,19.7761714 43.3833306,19.7152279 C43.0621794,19.6542843 42.7811722,19.5476332 42.5403088,19.3952744 C42.2994454,19.2429156 42.1087619,19.0346919 41.9682582,18.7706033 C41.8277546,18.5065148 41.7575028,18.1814827 41.7575028,17.7955071 C41.7575028,17.3892169 41.8277546,17.0540276 41.9682582,16.789939 C42.1087619,16.5258504 42.2944274,16.3074695 42.5252548,16.1347962 C42.7560822,15.9621229 43.0270535,15.825 43.3381687,15.7234275 C43.649284,15.6218549 43.9654172,15.5405969 44.2865683,15.4796534 C44.6277915,15.4187099 44.9690146,15.3679236 45.3102377,15.3272946 C45.6514609,15.2866656 45.97763,15.2358793 46.2887453,15.1749358 C46.5998605,15.1139923 46.8909037,15.0378129 47.161875,14.9463976 C47.4328464,14.8549823 47.6586558,14.7280167 47.8393033,14.5655006 L47.8393033,14.5655006 L47.8393033,16.1805039 C47.8393033,16.4242779 47.8142134,16.74931 47.7640335,17.1556001 C47.7138536,17.5618902 47.578368,17.9631017 47.3575765,18.3592346 C47.1367851,18.7553675 46.795562,19.0956354 46.3339071,19.3800385 C45.8722523,19.6644416 45.219914,19.8066431 44.3768921,19.8066431 Z M60.0313397,22.2748556 L60.0313397,0.518019897 L55.7560146,0.518019897 L55.7560146,22.2748556 L60.0313397,22.2748556 Z M70.8083037,22.6709884 C72.5746353,22.6709884 74.0800314,22.2646983 75.3244923,21.4521181 C76.5689531,20.6395379 77.4922628,19.2886232 78.0944213,17.3993742 L74.3309308,17.3993742 C74.1904272,17.8869223 73.8090601,18.3490773 73.1868297,18.7858392 C72.5645993,19.2226011 71.8219372,19.440982 70.9588434,19.440982 C69.7545264,19.440982 68.8312167,19.1261072 68.1889144,18.4963575 C67.546612,17.8666078 67.1953529,16.8508825 67.135137,15.4491816 L78.3653926,15.4491816 C78.4456804,14.2303113 78.3453206,13.0622272 78.0643133,11.9449294 C77.783306,10.8276316 77.3266692,9.8322208 76.6944028,8.95869705 C76.0621364,8.0851733 75.2542405,7.38940148 74.270715,6.87138158 C73.2871894,6.35336168 72.1330524,6.09435173 70.8083037,6.09435173 C69.6240587,6.09435173 68.5451915,6.30765404 67.5717019,6.73425866 C66.5982124,7.16086329 65.7602085,7.74490533 65.0576903,8.48638479 C64.3551721,9.22786425 63.8132295,10.1064666 63.4318624,11.1221919 C63.0504954,12.1379172 62.8598119,13.2349005 62.8598119,14.4131418 C62.8598119,15.6320122 63.0454774,16.74931 63.4168085,17.7650353 C63.7881395,18.7807606 64.3150282,19.6542843 64.9974745,20.3856065 C65.6799207,21.1169288 66.5129066,21.6806563 67.4964321,22.0767892 C68.4799576,22.472922 69.5839148,22.6709884 70.8083037,22.6709884 Z M74.0900674,12.7067234 L67.135137,12.7067234 C67.155209,12.4020058 67.2204428,12.0566592 67.3308386,11.6706836 C67.4412343,11.284708 67.6319178,10.9190469 67.9028891,10.5737003 C68.1738604,10.2283537 68.5351555,9.93887195 68.9867744,9.70525513 C69.4383932,9.47163832 70.0054258,9.35482991 70.687872,9.35482991 C71.7316134,9.35482991 72.5094014,9.63923299 73.0212361,10.2080392 C73.5330708,10.7768453 73.8893479,11.6097401 74.0900674,12.7067234 Z M86.2821038,22.2748556 L86.2821038,13.2856868 L95.284373,13.2856868 L95.284373,9.56813222 L86.2821038,9.56813222 L86.2821038,4.54029204 L96.6693375,4.54029204 L96.6693375,0.518019897 L81.5551598,0.518019897 L81.5551598,22.2748556 L86.2821038,22.2748556 Z M103.562379,22.2748556 L103.562379,0.518019897 L99.2870542,0.518019897 L99.2870542,22.2748556 L103.562379,22.2748556 Z M112.833947,22.6709884 C113.737185,22.6709884 114.620351,22.4678434 115.483444,22.0615533 C116.346538,21.6552632 117.049056,20.9950417 117.590999,20.080889 L117.681323,20.080889 L117.681323,22.2748556 L121.745893,22.2748556 L121.745893,6.52095635 L117.470567,6.52095635 L117.470567,14.778803 C117.470567,16.3836489 117.209632,17.5364971 116.687761,18.2373476 C116.165891,18.938198 115.322869,19.2886232 114.158696,19.2886232 C113.135026,19.2886232 112.422472,18.9686698 112.021033,18.3287628 C111.619594,17.6888559 111.418875,16.7188383 111.418875,15.4187099 L111.418875,6.52095635 L107.14355,6.52095635 L107.14355,16.2109756 C107.14355,17.1860719 107.228855,18.0748315 107.399467,18.8772545 C107.570078,19.6796775 107.86614,20.3602134 108.287651,20.9188623 C108.709162,21.4775112 109.28623,21.9091945 110.018856,22.2139121 C110.751482,22.5186297 111.689846,22.6709884 112.833947,22.6709884 Z M129.602388,4.08321566 L129.602388,0.518019897 L125.327063,0.518019897 L125.327063,4.08321566 L129.602388,4.08321566 Z M129.602388,22.2748556 L129.602388,6.52095635 L125.327063,6.52095635 L125.327063,22.2748556 L129.602388,22.2748556 Z M139.506222,22.6709884 C140.529892,22.6709884 141.448183,22.4830793 142.261097,22.1072609 C143.074011,21.7314426 143.731367,21.1169288 144.233166,20.2637195 L144.293382,20.2637195 L144.293382,22.2748556 L148.357952,22.2748556 L148.357952,0.518019897 L144.082627,0.518019897 L144.082627,8.44067715 L144.022411,8.44067715 C143.540684,7.66872593 142.883328,7.08468389 142.050342,6.68855103 C141.217356,6.29241816 140.339208,6.09435173 139.415898,6.09435173 C138.271797,6.09435173 137.2682,6.32288992 136.405106,6.7799663 C135.542012,7.23704268 134.82444,7.84139923 134.252389,8.59303594 C133.680339,9.34467266 133.248792,10.2131178 132.957749,11.1983713 C132.666705,12.1836248 132.521184,13.2044288 132.521184,14.2607831 C132.521184,15.3577664 132.666705,16.4141207 132.957749,17.429846 C133.248792,18.4455712 133.680339,19.3444881 134.252389,20.1265966 C134.82444,20.9087051 135.552048,21.5282975 136.435214,21.9853739 C137.31838,22.4424503 138.342049,22.6709884 139.506222,22.6709884 Z M140.559999,19.440982 C139.897625,19.440982 139.330593,19.2937019 138.858902,18.9991415 C138.387211,18.7045812 137.995808,18.3186056 137.684693,17.8412147 C137.373578,17.3638238 137.147768,16.8204108 137.007264,16.2109756 C136.866761,15.6015404 136.796509,14.9921053 136.796509,14.3826701 C136.796509,13.7326059 136.861743,13.1079349 136.992211,12.5086569 C137.122678,11.909379 137.333434,11.3761232 137.624477,10.9088896 C137.91552,10.441656 138.301905,10.0658376 138.783632,9.78143453 C139.265359,9.49703145 139.857481,9.35482991 140.559999,9.35482991 C141.262518,9.35482991 141.844604,9.49703145 142.306259,9.78143453 C142.767914,10.0658376 143.144263,10.4365773 143.435306,10.8936537 C143.726349,11.3507301 143.932087,11.8789073 144.052519,12.4781852 C144.17295,13.0774631 144.233166,13.7021341 144.233166,14.3521983 C144.233166,15.0022625 144.17295,15.6320122 144.052519,16.2414474 C143.932087,16.8508825 143.731367,17.3942956 143.45036,17.8716865 C143.169353,18.3490773 142.793004,18.7299743 142.321313,19.0143774 C141.849622,19.2987805 141.262518,19.440982 140.559999,19.440982 Z M156.184339,22.2748556 L156.184339,0.518019897 L151.909014,0.518019897 L151.909014,22.2748556 L156.184339,22.2748556 Z M162.08382,27.7902439 C163.549072,27.7902439 164.693173,27.5159981 165.516123,26.9675064 C166.339073,26.4190148 166.981375,25.504862 167.44303,24.2250481 L173.946341,6.52095635 L169.520477,6.52095635 L166.118281,17.3079589 L166.058065,17.3079589 L162.535438,6.52095635 L157.989142,6.52095635 L163.438676,21.2997593 C163.559108,21.6044769 163.619324,21.929509 163.619324,22.2748556 C163.619324,22.7420892 163.483838,23.1686938 163.212867,23.5546694 C162.941895,23.9406451 162.525402,24.1641046 161.963388,24.2250481 C161.541877,24.2453626 161.120366,24.2352054 160.698855,24.1945764 C160.277344,24.1539474 159.865869,24.1133184 159.46443,24.0726893 L159.46443,27.6378851 C159.906013,27.6785141 160.342578,27.7140645 160.774125,27.7445363 C161.205672,27.775008 161.642237,27.7902439 162.08382,27.7902439 Z" id="ScaleFluidly" fill="#4665D0" fill-rule="nonzero"></path>
            </g>
        </g>
    </g>
</svg>